<svg width="77" height="62" viewBox="0 0 77 62" fill="none" xmlns="http://www.w3.org/2000/svg">
<path d="M6.5325 8.8815C11.9324 2.98762 20.1033 0 30.8145 0H34.6633V10.9236L31.5689 11.5475C26.296 12.6093 22.6281 14.6979 20.6653 17.763C19.6411 19.4143 19.0602 21.3049 18.9795 23.25H30.8145C31.8353 23.25 32.8142 23.6583 33.536 24.385C34.2578 25.1117 34.6633 26.0973 34.6633 27.125V54.25C34.6633 58.5241 31.2109 62 26.9657 62H3.87299C2.85223 62 1.87327 61.5917 1.15148 60.865C0.429697 60.1383 0.0242005 59.1527 0.0242005 58.125V38.75L0.035747 27.4389C0.00110788 27.0088 -0.730162 16.8175 6.5325 8.8815ZM69.3024 62H46.2097C45.1889 62 44.21 61.5917 43.4882 60.865C42.7664 60.1383 42.3609 59.1527 42.3609 58.125V38.75L42.3724 27.4389C42.3378 27.0088 41.6065 16.8175 48.8692 8.8815C54.269 2.98762 62.44 0 73.1512 0H77V10.9236L73.9056 11.5475C68.6327 12.6093 64.9648 14.6979 63.002 17.763C61.9778 19.4143 61.3969 21.3049 61.3162 23.25H73.1512C74.172 23.25 75.1509 23.6583 75.8727 24.385C76.5945 25.1117 77 26.0973 77 27.125V54.25C77 58.5241 73.5476 62 69.3024 62Z" fill="#2D74B4"/>
</svg>
