<svg width="124" height="124" viewBox="0 0 124 124" fill="none" xmlns="http://www.w3.org/2000/svg">
<g filter="url(#filter0_d_0_739)">
<circle cx="62" cy="58" r="58" fill="white"/>
</g>
<path d="M61.1501 77.53C59.2331 77.53 57.6021 78.134 56.2501 79.345C54.8971 80.556 54.2211 82.027 54.2211 83.751C54.2211 85.703 54.9051 87.232 56.2711 88.346C57.6421 89.459 59.2331 90.016 61.0581 90.016C62.9141 90.016 64.5311 89.467 65.9151 88.366C67.2991 87.268 67.9871 85.731 67.9871 83.752C67.9871 82.027 67.3271 80.557 66.0061 79.346C64.6821 78.134 63.0651 77.53 61.1501 77.53ZM80.6891 34.666C78.9331 31.996 76.4181 29.855 73.2091 28.311C70.0231 26.774 66.3111 26 62.1691 26C57.7131 26 53.7481 26.931 50.3881 28.77C47.0211 30.608 44.4261 32.968 42.6641 35.79C40.8901 38.621 39.9961 41.467 39.9961 44.251C39.9961 45.741 40.6121 47.128 41.8271 48.375C43.0481 49.629 44.5681 50.265 46.3421 50.265C49.3621 50.265 51.4321 48.485 52.4831 45.004C53.4401 42.117 54.6191 39.92 55.9831 38.463C57.2671 37.091 59.3491 36.397 62.1701 36.397C64.6031 36.397 66.5221 37.079 68.0451 38.483C69.5451 39.871 70.2741 41.527 70.2741 43.541C70.2832 44.5162 70.0374 45.4769 69.5611 46.328C69.0549 47.2367 68.4249 48.0707 67.6891 48.806C66.9091 49.586 65.6231 50.763 63.8651 52.299C61.8171 54.094 60.1641 55.671 58.9571 56.972C57.6808 58.365 56.6556 59.9688 55.9271 61.712C55.1661 63.516 54.7811 65.664 54.7811 68.099C54.7811 70.18 55.3611 71.791 56.5081 72.889C57.6431 73.979 59.0561 74.532 60.7111 74.532C63.8751 74.532 65.8621 72.803 66.4521 69.569C66.7581 68.224 66.9811 67.284 67.1321 66.747C67.2691 66.261 67.4671 65.763 67.7221 65.265C67.9691 64.783 68.3611 64.234 68.8861 63.63C69.4351 62.999 70.1821 62.254 71.0931 61.423C74.5021 58.377 76.9061 56.17 78.2401 54.864C79.6161 53.515 80.8161 51.9 81.8111 50.058C82.8271 48.168 83.3441 45.949 83.3441 43.46C83.3421 40.306 82.4481 37.35 80.6831 34.669" fill="#0071BC"/>
<defs>
<filter id="filter0_d_0_739" x="0" y="0" width="124" height="124" filterUnits="userSpaceOnUse" color-interpolation-filters="sRGB">
<feFlood flood-opacity="0" result="BackgroundImageFix"/>
<feColorMatrix in="SourceAlpha" type="matrix" values="0 0 0 0 0 0 0 0 0 0 0 0 0 0 0 0 0 0 127 0" result="hardAlpha"/>
<feOffset dy="4"/>
<feGaussianBlur stdDeviation="2"/>
<feComposite in2="hardAlpha" operator="out"/>
<feColorMatrix type="matrix" values="0 0 0 0 0 0 0 0 0 0 0 0 0 0 0 0 0 0 0.25 0"/>
<feBlend mode="normal" in2="BackgroundImageFix" result="effect1_dropShadow_0_739"/>
<feBlend mode="normal" in="SourceGraphic" in2="effect1_dropShadow_0_739" result="shape"/>
</filter>
</defs>
</svg>
